<svg version="1.1" id="Layer_1" xmlns:x="ns_extend;" xmlns:i="ns_ai;" xmlns:graph="ns_graphs;" xmlns="http://www.w3.org/2000/svg" xmlns:xlink="http://www.w3.org/1999/xlink" x="0px" y="0px" viewBox="0 0 33.3 33" style="enable-background:new 0 0 33.3 33;" xml:space="preserve">
 <style type="text/css">
  .st0{fill:#111111;}
 </style>
 <metadata>
  <sfw xmlns="ns_sfw;">
   <slices>
   </slices>
   <sliceSourceBounds bottomLeftOrigin="true" height="33" width="33.3" x="78.2" y="68.3">
   </sliceSourceBounds>
  </sfw>
 </metadata>
 <g>
  <path class="st0" d="M28.8,5.1c-3-3.1-7-4.9-11.3-5.1c-4.4-0.2-8.7,1.3-12,4.3c-3.3,2.9-5.2,7-5.4,11.4L0,32.2L16.6,33
		c2.2,0,4.4-0.4,6.4-1.2s3.9-2,5.4-3.5C30,26.8,31.2,25,32,23c0.8-2,1.3-4.1,1.3-6.3C33.4,12.3,31.8,8.2,28.8,5.1L28.8,5.1z
		 M16.8,23.7l-7.5-0.4v-7.5c0.1-1.8,1-3.6,2.3-4.8c1.4-1.3,3.2-2,5-2c0.1,0,0.2,0,0.4,0c1.9,0.1,3.7,0.9,5,2.3s2,3.2,2,5.1
		s-0.8,3.7-2.1,5.1C20.5,22.9,18.7,23.7,16.8,23.7L16.8,23.7z">
  </path>
 </g>
</svg>