<svg version="1.1" id="Layer_1" xmlns:x="ns_extend;" xmlns:i="ns_ai;" xmlns:graph="ns_graphs;" xmlns="http://www.w3.org/2000/svg" xmlns:xlink="http://www.w3.org/1999/xlink" x="0px" y="0px" viewBox="0 0 111.6 56" style="enable-background:new 0 0 111.6 56;" xml:space="preserve">
 <style type="text/css">
  .st0{fill:#FFFFFF;}
 </style>
 <metadata>
  <sfw xmlns="ns_sfw;">
   <slices>
   </slices>
   <sliceSourceBounds bottomLeftOrigin="true" height="56" width="111.6" x="-47.6" y="40.5">
   </sliceSourceBounds>
  </sfw>
 </metadata>
 <g>
  <path class="st0" d="M74.8,0h-9v41h9V0z">
  </path>
  <path class="st0" d="M48.5,9c-9.7,0-13.5,4.6-14.3,11.1H43c0.8-2.7,2.6-3.7,5.2-3.7c3.4,0,4.9,1.8,4.9,5.2v1.3h-8.1
		c-8.2,0-11.6,3.9-11.6,9.5c0,6.1,4.1,9.1,9.5,9.1c5.3,0,8.8-1.3,10.2-6.6v6h9V21.5C62,13.6,58,9,48.5,9z M53,28.9
		c0,3.1-2.5,5.4-6.3,5.4c-3.4,0-4.6-1.5-4.6-3.4c0-1.7,1.6-2.9,4.2-2.9H53V28.9z">
  </path>
  <path class="st0" d="M107,14.1C104,11,100,9.2,95.7,9c-4.4-0.2-8.7,1.3-12,4.3c-3.3,2.9-5.2,7-5.4,11.4l-0.1,16.5l16.6,0.8
		c2.2,0,4.4-0.4,6.4-1.2c2-0.8,3.9-2,5.4-3.5c1.6-1.5,2.8-3.3,3.6-5.3c0.8-2,1.3-4.1,1.3-6.3C111.6,21.3,110,17.2,107,14.1L107,14.1
		z M95,32.7l-7.5-0.4l0-7.5c0.1-1.8,1-3.6,2.3-4.8c1.4-1.3,3.2-2,5-2c0.1,0,0.2,0,0.4,0c1.9,0.1,3.7,0.9,5,2.3c1.3,1.4,2,3.2,2,5.1
		c0,1.9-0.8,3.7-2.1,5.1C98.7,31.9,96.9,32.7,95,32.7L95,32.7z">
  </path>
  <path class="st0" d="M21.3,10.3v16.6c0,1.9-0.6,3.5-1.6,4.6l0,0c0,0.1-0.1,0.1-0.1,0.1c0,0-0.1,0.1-0.2,0.2l0,0
		c-0.1,0.1-0.1,0.1-0.2,0.2C19.1,32,19,32,19,32.1c-1.1,0.8-2.5,1.2-4.2,1.2c-2.6,0-4.2-1.1-5.1-2.8c-0.5-1-0.7-2.3-0.7-3.6l0-16.6
		H0v17.8c0,8.5,4.5,14.2,11.6,14.2c4.9,0,8.1-1.8,9.9-4l0,2.8c0,4.5-2.3,7-6.4,7c-2.8,0-3.7-1-4.5-3.2l-0.1-0.4H1.2l0.2,0.8
		c0.4,2,1.5,4.8,3.9,7.1c2.6,2.5,6.2,3.7,10.6,3.7c4.4,0,8.1-1.4,10.7-4.2c2.5-2.6,3.8-6.2,3.9-10.4V10.3L21.3,10.3z">
  </path>
 </g>
</svg>